<?xml version="1.0" encoding="iso-8859-1"?>
<!-- Generator: Adobe Illustrator 19.0.0, SVG Export Plug-In . SVG Version: 6.00 Build 0)  -->
<svg version="1.1" id="Capa_1" xmlns="http://www.w3.org/2000/svg" xmlns:xlink="http://www.w3.org/1999/xlink" x="0px" y="0px"
	 viewBox="0 0 512 512" style="enable-background:new 0 0 512 512;" xml:space="preserve">
<g>
	<g>
		<path d="M384,0H192c-2.837,0-5.547,1.131-7.552,3.115L77.781,109.781c-1.984,2.005-3.115,4.715-3.115,7.552v341.333
			C74.667,488.064,98.603,512,128,512h256c29.397,0,53.333-23.936,53.333-53.333V53.333C437.333,23.936,413.397,0,384,0z
			 M416,458.667c0,17.643-14.357,32-32,32H128c-17.643,0-32-14.357-32-32V121.749L196.416,21.333H384c17.643,0,32,14.357,32,32
			V458.667z"/>
	</g>
</g>
<g>
	<g>
		<path d="M341.333,170.667H170.667c-17.643,0-32,14.357-32,32V416c0,17.643,14.357,32,32,32h170.667c17.643,0,32-14.357,32-32
			V202.667C373.333,185.024,358.976,170.667,341.333,170.667z M352,416c0,5.888-4.779,10.667-10.667,10.667H170.667
			c-5.888,0-10.667-4.779-10.667-10.667V202.667c0-5.888,4.779-10.667,10.667-10.667h170.667c5.888,0,10.667,4.779,10.667,10.667
			V416z"/>
	</g>
</g>
<g>
	<g>
		<path d="M362.667,298.667H149.333c-5.888,0-10.667,4.779-10.667,10.667S143.445,320,149.333,320h213.333
			c5.888,0,10.667-4.779,10.667-10.667S368.555,298.667,362.667,298.667z"/>
	</g>
</g>
<g>
	<g>
		<path d="M213.333,170.667c-5.888,0-10.667,4.779-10.667,10.667v64c0,5.888,4.779,10.667,10.667,10.667S224,251.221,224,245.333
			v-64C224,175.445,219.221,170.667,213.333,170.667z"/>
	</g>
</g>
<g>
	<g>
		<path d="M256,234.667c-5.888,0-10.667,4.779-10.667,10.667v64c0,5.888,4.779,10.667,10.667,10.667
			c5.888,0,10.667-4.779,10.667-10.667v-64C266.667,239.445,261.888,234.667,256,234.667z"/>
	</g>
</g>
<g>
	<g>
		<path d="M298.667,170.667c-5.888,0-10.667,4.779-10.667,10.667v64c0,5.888,4.779,10.667,10.667,10.667s10.667-4.779,10.667-10.667
			v-64C309.333,175.445,304.555,170.667,298.667,170.667z"/>
	</g>
</g>
<g>
	<g>
		<path d="M256,362.667c-5.888,0-10.667,4.779-10.667,10.667v64c0,5.888,4.779,10.667,10.667,10.667
			c5.888,0,10.667-4.779,10.667-10.667v-64C266.667,367.445,261.888,362.667,256,362.667z"/>
	</g>
</g>
<g>
	<g>
		<path d="M213.333,298.667c-5.888,0-10.667,4.779-10.667,10.667v64c0,5.888,4.779,10.667,10.667,10.667S224,379.221,224,373.333
			v-64C224,303.445,219.221,298.667,213.333,298.667z"/>
	</g>
</g>
<g>
	<g>
		<path d="M298.667,298.667c-5.888,0-10.667,4.779-10.667,10.667v64c0,5.888,4.779,10.667,10.667,10.667s10.667-4.779,10.667-10.667
			v-64C309.333,303.445,304.555,298.667,298.667,298.667z"/>
	</g>
</g>
<g>
</g>
<g>
</g>
<g>
</g>
<g>
</g>
<g>
</g>
<g>
</g>
<g>
</g>
<g>
</g>
<g>
</g>
<g>
</g>
<g>
</g>
<g>
</g>
<g>
</g>
<g>
</g>
<g>
</g>
</svg>
