 <svg xmlns="http://www.w3.org/2000/svg" viewBox="0 0 700 350" preserveAspectRatio="xMidYMid meet" width="700pt" height="350pt" version="1.0">
<metadata>
Created by potrace 1.12, written by Peter Selinger 2001-2015
</metadata>
<g fill="#000000" stroke="none" transform="translate(0 350) scale(0.1, -0.1)">
<path d="M 0 1750 l 0 -1750 l 3500 0 l 3500 0 l 0 1750 l 0 1750 l -3500 0 l -3500 0 l 0 -1750 Z m 3360 1292 c 39 -24 261 -29 320 -7 c 107 40 205 40 205 0 c 0 -13 -9 -21 -31 -26 c -17 -3 -42 -13 -55 -22 c -14 -11 -43 -17 -75 -17 c -38 0 -55 -5 -69 -20 c -10 -11 -24 -20 -32 -20 c -7 0 -29 -16 -49 -35 c -28 -28 -32 -36 -19 -41 c 8 -4 26 1 40 10 c 13 9 29 16 35 16 c 18 0 11 -39 -9 -49 c -18 -10 -34 -45 -24 -55 c 3 -3 20 9 38 27 c 68 67 94 87 113 87 c 10 0 26 8 36 19 c 11 12 36 20 72 24 c 33 3 64 13 76 24 c 18 16 44 18 222 21 c 199 3 262 -4 254 -30 c -2 -6 -31 -17 -64 -25 c -32 -7 -73 -18 -90 -23 c -16 -6 -65 -13 -107 -16 c -56 -5 -81 -12 -93 -25 c -12 -13 -31 -19 -59 -19 c -29 0 -47 -6 -60 -20 c -10 -11 -28 -20 -40 -20 c -11 0 -36 -11 -55 -25 c -19 -14 -38 -25 -43 -25 c -5 0 -19 -10 -31 -23 c -11 -12 -37 -34 -56 -49 c -19 -15 -32 -30 -28 -33 c 3 -4 33 14 65 39 c 32 25 63 46 69 46 c 6 0 17 7 24 15 c 7 8 23 15 35 15 c 12 0 34 9 48 20 c 31 24 97 28 97 5 c 0 -9 -12 -20 -26 -26 c -15 -5 -40 -21 -57 -35 c -41 -35 -121 -133 -114 -140 c 3 -4 34 23 69 58 c 35 36 75 68 90 71 c 15 4 32 16 38 27 c 7 14 21 20 44 20 c 20 0 40 8 51 20 c 11 12 31 20 50 20 c 19 0 39 8 50 20 c 12 14 31 20 59 20 c 23 0 63 11 91 25 c 62 31 203 36 226 9 c 20 -24 -8 -68 -48 -74 c -19 -3 -41 -17 -54 -34 c -21 -26 -23 -38 -20 -121 c 2 -64 -1 -95 -9 -100 c -7 -4 -57 -9 -111 -11 c -79 -2 -106 -7 -133 -23 c -18 -12 -47 -21 -64 -21 c -20 0 -35 -7 -41 -19 c -6 -11 -26 -21 -50 -25 c -46 -7 -99 -40 -136 -84 c -20 -24 -25 -41 -25 -82 c 0 -47 4 -56 38 -89 c 60 -59 148 -131 160 -131 c 6 0 16 -9 22 -20 c 7 -13 21 -20 39 -20 c 20 0 34 -8 45 -25 c 9 -14 22 -25 30 -25 c 7 0 21 -9 31 -20 c 10 -11 26 -20 35 -20 c 9 0 25 -10 36 -21 c 10 -12 29 -25 41 -30 c 34 -13 54 -51 47 -88 c -4 -18 -14 -35 -23 -38 c -24 -9 -201 -192 -201 -208 c 0 -8 -9 -19 -21 -25 c -17 -9 -20 -19 -17 -58 c 3 -50 16 -59 34 -23 c 25 48 128 141 158 141 c 8 0 20 9 26 20 c 7 13 21 20 39 20 c 15 0 36 9 45 19 c 10 11 32 23 49 27 c 41 9 83 41 97 73 c 8 21 7 34 -9 65 c -22 43 -50 76 -63 76 c -5 0 -27 18 -50 40 c -23 21 -53 42 -69 45 c -15 3 -35 15 -45 26 c -9 10 -27 19 -40 19 c -13 0 -28 9 -34 20 c -6 11 -18 20 -27 20 c -9 0 -40 26 -70 57 c -49 54 -53 61 -53 108 c 0 45 3 53 34 78 c 24 19 47 27 73 27 c 21 0 69 7 108 15 c 80 17 196 20 211 5 c 6 -6 59 -11 120 -13 c 91 -2 109 0 109 13 c 0 11 -18 17 -68 23 c -38 4 -78 14 -90 22 c -17 12 -58 15 -202 15 c -163 0 -183 -2 -210 -20 c -34 -23 -65 -26 -84 -7 c -10 10 -11 8 -5 -7 c 5 -12 4 -17 -3 -13 c -5 3 -20 -15 -32 -41 c -25 -55 -46 -82 -84 -107 c -28 -18 -28 -18 -57 10 c -45 43 -42 95 8 145 c 23 24 55 43 82 50 c 25 7 50 16 57 22 c 17 14 36 -1 30 -24 c -5 -16 -3 -17 11 -7 c 9 7 24 21 32 31 c 24 28 209 42 357 28 c 143 -14 154 -8 90 53 l -47 44 l 0 86 c 0 74 3 88 19 96 c 10 6 22 22 25 36 c 8 32 30 32 75 -2 c 80 -60 103 -116 105 -254 c 1 -105 1 -106 34 -143 c 37 -43 40 -81 6 -81 c -11 0 -27 -5 -35 -12 c -9 -7 -66 -13 -151 -15 c -112 -2 -139 -6 -155 -20 c -11 -10 -32 -18 -47 -18 c -16 0 -50 -14 -77 -32 l -49 -31 l 25 -23 c 30 -27 31 -40 8 -53 c -31 -17 -6 -23 54 -13 c 47 8 61 7 74 -4 c 8 -8 23 -14 31 -14 c 9 0 21 -7 28 -15 c 16 -19 30 -10 23 15 c -14 54 53 67 98 18 c 35 -39 36 -45 4 -70 c -33 -26 -24 -38 27 -38 c 37 0 46 6 89 53 c 27 28 49 57 49 63 c 0 19 28 24 45 8 c 8 -9 15 -24 15 -35 c 0 -23 49 -89 67 -89 c 6 0 14 -8 18 -19 c 3 -10 19 -21 36 -25 c 39 -8 49 -34 20 -56 c -34 -25 -25 -61 17 -72 c 22 -6 32 -14 32 -28 c 0 -24 -35 -44 -65 -36 c -14 4 -27 0 -35 -9 c -6 -8 -32 -17 -56 -21 c -24 -3 -47 -10 -50 -15 c -3 -5 -20 2 -37 17 c -26 22 -33 36 -37 78 c -4 43 -8 51 -25 51 c -16 0 -21 -8 -25 -45 c -7 -56 -15 -70 -42 -70 c -18 0 -20 -4 -14 -39 c 8 -51 -2 -57 -95 -63 c -68 -4 -81 -8 -118 -38 c -49 -40 -55 -78 -16 -104 c 16 -10 25 -26 25 -41 c 0 -16 6 -25 15 -25 c 9 0 15 10 15 26 c 0 31 36 76 88 112 c 31 21 48 25 109 25 c 44 0 78 -5 87 -13 c 19 -15 20 -11 6 25 c -5 14 -21 30 -34 35 c -18 6 -27 19 -31 44 c -4 19 -4 39 0 45 c 10 17 35 13 42 -6 c 6 -18 61 -77 78 -84 c 81 -35 109 -85 55 -95 c -16 -4 -35 -13 -41 -20 c -7 -9 -32 -14 -66 -14 c -47 0 -59 -4 -84 -29 c -16 -16 -29 -34 -29 -41 c 0 -21 31 -22 53 -3 c 22 20 151 48 169 37 c 11 -7 10 -81 -1 -89 c -5 -3 -21 0 -36 7 c -18 8 -29 8 -36 1 c -17 -17 0 -53 28 -64 c 24 -9 25 -13 21 -68 c -8 -109 -85 -181 -173 -161 c -41 9 -92 3 -101 -11 c -3 -5 -30 -9 -60 -9 c -41 0 -54 4 -54 15 c 0 17 -2 18 -53 6 c -23 -6 -67 -5 -109 1 c -59 8 -79 16 -115 45 c -24 20 -46 33 -49 30 c -10 -10 26 -55 66 -81 c 35 -23 50 -26 127 -26 c 112 0 93 -18 -22 -21 c -223 -6 -299 -2 -390 24 c -50 14 -112 31 -139 38 l -49 12 l 26 22 c 26 20 37 55 18 55 c -5 0 -18 -12 -28 -26 c -18 -24 -24 -25 -118 -28 l -100 -2 l -2 -52 c -2 -59 -7 -72 -32 -72 c -26 0 -60 41 -90 108 c -12 25 -12 26 -109 22 c -87 -3 -116 12 -133 70 c -10 32 -10 48 1 79 c 7 22 10 51 8 65 c -3 14 -2 23 3 21 c 4 -3 10 -1 14 5 c 3 5 1 10 -4 10 c -19 0 -12 36 10 56 c 17 15 44 20 147 26 c 70 3 138 10 152 14 c 14 4 59 31 100 60 c 64 44 75 56 75 80 c 0 16 6 36 12 44 c 7 8 19 24 27 34 c 13 19 14 19 42 2 c 47 -30 85 -68 104 -106 c 10 -19 27 -44 39 -54 c 12 -11 21 -27 21 -36 c 0 -9 11 -31 25 -50 c 14 -19 25 -40 25 -46 c 0 -7 7 -17 16 -22 c 17 -9 57 -70 75 -114 c 6 -16 15 -28 20 -28 c 14 0 10 15 -11 43 c -11 14 -20 34 -20 45 c 0 10 -9 31 -20 45 c -11 14 -20 34 -20 45 c 0 10 -9 27 -19 36 c -11 10 -22 29 -26 43 c -3 15 -15 38 -26 51 c -10 14 -19 32 -19 42 c 0 9 -9 25 -19 34 c -11 10 -22 29 -26 43 c -3 15 -15 38 -26 51 c -10 14 -19 35 -19 48 c 0 13 -7 38 -16 57 c -15 31 -15 35 3 68 c 19 33 21 34 91 37 c 70 3 72 2 112 -35 c 22 -21 40 -43 40 -49 c 0 -6 9 -19 20 -29 c 12 -11 20 -31 20 -51 c 0 -23 -6 -37 -20 -44 c -11 -6 -20 -17 -20 -24 c 0 -7 -11 -23 -25 -36 c -13 -12 -22 -27 -19 -31 c 8 -14 64 -10 70 5 c 3 7 24 28 48 45 c 38 29 44 39 49 81 c 11 88 1 114 -60 159 c -29 23 -62 41 -72 41 c -9 0 -28 11 -41 25 c -16 17 -34 25 -56 25 c -23 0 -37 6 -44 20 c -7 13 -21 20 -40 20 c -19 0 -33 7 -40 19 c -5 11 -20 23 -32 27 c -24 7 -73 59 -114 120 c -18 26 -24 50 -26 106 c -2 57 -6 73 -18 73 c -11 0 -16 -15 -18 -62 c -2 -50 2 -71 21 -110 c 33 -63 94 -132 156 -174 c 60 -41 66 -68 22 -105 c -29 -24 -55 -80 -49 -106 c 4 -20 -45 -98 -62 -98 c -8 0 -36 13 -61 29 c -37 23 -53 43 -83 104 c -59 119 -81 140 -130 121 c -9 -3 -32 -38 -51 -76 c -47 -91 -72 -124 -113 -150 c -27 -17 -38 -18 -57 -10 c -26 12 -31 27 -38 105 c -3 26 -11 56 -20 65 c -15 17 -28 102 -16 102 c 3 0 35 27 71 59 c 83 76 130 162 126 226 c -4 63 -22 57 -26 -10 c -2 -42 -7 -57 -22 -65 c -11 -6 -20 -18 -20 -28 c -1 -18 -82 -112 -97 -112 c -5 0 -20 -11 -33 -25 c -13 -14 -33 -25 -45 -25 c -12 0 -30 -9 -40 -20 c -10 -11 -31 -20 -48 -20 c -19 0 -38 -9 -53 -25 c -13 -14 -34 -25 -48 -25 c -15 0 -30 -8 -36 -20 c -6 -11 -18 -20 -26 -20 c -19 0 -64 -48 -64 -68 c 0 -9 -7 -23 -15 -32 c -14 -15 -14 -18 0 -30 c 8 -7 15 -26 15 -42 c 0 -21 10 -38 33 -59 c 17 -16 42 -39 54 -50 c 22 -21 53 -23 60 -3 c 2 6 -12 30 -31 52 c -30 37 -34 47 -29 84 c 3 26 13 48 24 57 c 10 7 19 19 19 26 c 0 7 19 27 42 44 c 36 27 50 31 104 31 c 45 0 65 -4 75 -17 c 18 -21 14 -136 -5 -172 c -8 -14 -25 -45 -37 -69 c -12 -23 -25 -45 -30 -48 c -5 -3 -9 -12 -9 -21 c 0 -8 -11 -28 -25 -45 c -14 -16 -25 -37 -25 -47 c 0 -10 -9 -26 -20 -36 c -11 -10 -20 -31 -20 -46 c 0 -18 -7 -32 -20 -39 c -13 -7 -20 -21 -20 -40 c 0 -18 -7 -33 -19 -39 c -10 -6 -22 -22 -25 -37 c -8 -31 -96 -144 -113 -144 c -7 0 -16 -8 -22 -17 c -7 -13 -31 -21 -82 -29 c -92 -14 -152 -1 -196 43 c -28 26 -33 38 -33 77 c 0 40 5 52 35 82 l 35 35 l 98 -3 l 97 -3 l 3 -39 c 4 -50 -9 -58 -76 -51 c -42 5 -53 3 -58 -9 c -13 -35 16 -49 89 -43 c 58 4 73 9 98 33 c 25 24 29 35 29 83 c 0 52 -2 58 -36 85 c -32 25 -42 28 -84 23 c -66 -8 -81 5 -91 84 c -6 41 -15 68 -25 74 c -9 6 -29 20 -44 32 c -20 16 -46 24 -106 29 c -43 4 -82 12 -86 17 c -3 6 -4 25 -1 43 c 4 26 0 37 -20 56 c -14 13 -27 37 -29 53 c -2 21 -11 34 -31 43 c -34 16 -57 3 -32 -18 c 24 -20 17 -51 -19 -94 c -29 -34 -35 -37 -55 -27 c -12 7 -50 15 -84 18 c -34 3 -74 11 -89 19 c -44 23 -31 74 18 74 c 33 0 41 20 16 41 c -37 30 -24 89 20 89 c 10 0 21 7 25 16 c 3 8 16 20 29 25 c 14 5 24 17 24 27 c 0 10 9 27 20 37 c 11 10 20 28 20 40 c 0 13 7 26 16 29 c 20 8 44 -10 44 -32 c 0 -25 81 -102 106 -102 c 41 0 38 21 -10 62 c -54 46 -57 64 -19 124 c 34 53 55 63 118 54 c 61 -8 106 -30 135 -67 l 22 -28 l -32 -6 c -18 -4 -39 -14 -48 -23 c -24 -24 -4 -36 43 -27 c 22 5 68 8 103 7 c 35 -2 65 1 68 6 c 3 5 -5 17 -18 28 l -23 20 l 29 24 c 31 26 28 46 -8 46 c -13 0 -31 9 -41 20 c -12 14 -31 20 -57 20 c -25 0 -50 8 -65 20 c -23 18 -41 20 -148 20 c -93 0 -125 3 -134 14 c -7 8 -20 12 -30 9 c -43 -11 -33 44 18 94 l 30 30 l -6 112 c -6 103 -4 113 14 134 c 12 12 24 32 27 44 c 8 25 104 105 120 100 c 6 -2 16 -13 22 -25 c 6 -12 18 -30 27 -40 c 13 -14 17 -38 17 -102 l 0 -83 l -46 -45 c -62 -59 -51 -69 58 -52 c 99 15 152 16 278 2 c 69 -8 97 -15 107 -27 c 11 -16 13 -16 29 -1 c 14 15 18 15 33 2 c 9 -7 33 -19 53 -24 c 71 -19 128 -78 128 -132 c 0 -33 -47 -99 -76 -106 c -14 -4 -40 -2 -57 3 c -26 7 -33 15 -37 43 c -6 43 -67 127 -114 158 c -34 23 -40 24 -214 20 c -119 -2 -184 -7 -193 -15 c -8 -6 -48 -15 -89 -20 c -56 -6 -75 -12 -75 -23 c 0 -13 24 -14 172 -11 c 94 2 223 0 286 -4 l 114 -7 l 43 -39 c 39 -36 42 -42 37 -75 c -7 -40 -86 -140 -121 -154 c -12 -4 -28 -15 -35 -24 c -7 -9 -21 -16 -31 -16 c -9 0 -29 -9 -43 -20 c -14 -11 -30 -20 -35 -20 c -19 0 -173 -132 -182 -155 c -5 -13 -14 -26 -19 -30 c -6 -3 -11 -18 -11 -33 c 0 -31 56 -82 91 -82 c 11 0 34 -11 51 -25 c 16 -14 40 -25 53 -25 c 14 0 29 -9 35 -20 c 6 -11 20 -20 31 -20 c 20 0 97 -71 156 -144 c 55 -67 73 -16 26 74 c -26 50 -167 203 -219 236 c -18 12 -24 25 -24 53 c 0 42 23 81 49 81 c 10 0 28 11 41 25 c 13 14 29 25 35 25 c 7 0 20 9 30 20 c 10 11 26 20 36 20 c 10 0 26 11 35 25 c 9 14 26 25 39 25 c 12 0 30 9 40 20 c 10 11 24 20 31 20 c 7 0 17 6 21 14 c 4 7 36 36 69 64 c 79 65 106 108 97 152 c -9 50 -53 110 -78 110 c -12 0 -30 8 -39 19 c -9 10 -35 21 -57 24 c -23 3 -51 14 -62 25 c -12 11 -40 23 -61 26 c -21 4 -49 14 -61 22 c -15 10 -57 16 -123 18 c -56 2 -106 7 -112 11 c -15 9 -6 58 17 103 c 17 30 17 34 1 65 c -10 17 -22 45 -28 61 c -9 25 -14 28 -39 23 c -33 -7 -61 16 -61 50 c 0 37 27 48 112 45 l 78 -2 l 0 29 c 0 59 10 61 244 61 c 196 0 214 -1 230 -19 c 9 -10 38 -22 64 -26 c 25 -4 57 -15 70 -26 c 14 -10 37 -19 51 -19 c 15 0 31 -8 39 -20 c 12 -20 52 -28 52 -10 c 0 6 7 10 15 10 c 8 0 15 -4 15 -10 c 0 -5 -7 -10 -15 -10 c -8 0 -15 -5 -15 -11 c 0 -13 52 -79 63 -79 c 13 0 8 27 -8 40 c -21 18 -19 41 5 47 c 11 3 20 10 20 15 c 0 15 -57 68 -74 68 c -8 0 -20 9 -26 20 c -8 15 -21 20 -54 20 c -58 0 -159 44 -154 68 c 6 32 118 35 168 4 Z m 740 -217 c 0 -8 -9 -15 -20 -15 c -25 0 -26 17 -2 23 c 9 3 18 5 20 6 c 1 0 2 -6 2 -14 Z m -1543 -212 c -3 -10 -5 -2 -5 17 c 0 19 2 27 5 18 c 2 -10 2 -26 0 -35 Z m 19 -100 c -3 -7 -16 -13 -30 -13 l -24 0 l 15 40 l 16 40 l 14 -27 c 7 -15 11 -33 9 -40 Z m 972 -566 c 2 -15 12 -32 23 -37 c 12 -7 19 -21 19 -39 c 0 -15 9 -36 20 -46 c 11 -10 20 -28 20 -41 c 0 -12 11 -36 25 -52 c 14 -17 25 -36 25 -44 c 0 -7 7 -24 16 -36 c 8 -12 14 -34 12 -49 l -3 -27 l -173 -1 c -95 -1 -175 2 -178 6 c -10 17 10 93 32 119 c 13 15 24 39 24 52 c 0 14 9 33 20 43 c 11 10 20 30 20 45 c 0 15 9 35 20 45 c 11 10 20 27 20 37 c 0 56 52 78 58 25 Z m -1230 -258 c 2 -29 -4 -41 -43 -79 c -44 -43 -57 -70 -33 -70 c 6 0 19 7 29 16 c 23 21 104 21 150 1 c 19 -8 42 -17 52 -21 c 9 -3 20 -14 24 -23 c 3 -10 14 -26 25 -36 c 26 -26 23 -73 -7 -100 c -86 -75 -105 -101 -105 -144 c 0 -30 7 -50 25 -71 c 29 -35 32 -68 8 -76 c -10 -3 -58 -4 -107 -2 c -87 3 -89 3 -117 37 c -29 35 -39 92 -18 104 c 6 4 30 4 55 0 c 39 -5 46 -11 59 -42 c 17 -41 39 -39 43 3 c 4 43 -40 82 -97 86 c -54 4 -74 27 -48 56 c 32 35 13 79 -22 48 c -25 -23 -54 0 -49 39 c 3 29 4 30 62 30 c 49 1 64 -4 94 -27 c 39 -31 60 -35 69 -13 c 3 10 -8 29 -32 52 c -34 33 -40 35 -85 30 c -37 -5 -54 -2 -72 11 c -13 10 -36 23 -51 30 c -32 14 -31 32 1 48 c 12 6 30 18 40 27 c 10 10 23 17 27 17 c 13 0 75 62 75 75 c 0 15 22 36 35 32 c 5 -2 11 -19 13 -38 Z m 2025 -799 c 13 -11 28 -32 31 -47 c 4 -16 15 -46 26 -68 c 35 -76 59 -140 62 -165 c 2 -14 12 -29 25 -35 c 25 -11 36 -50 17 -66 c -7 -6 -25 -9 -40 -7 c -27 3 -33 12 -94 138 c -9 18 -61 24 -115 13 c -35 -8 -41 -13 -51 -51 c -7 -23 -25 -58 -40 -77 c -23 -30 -32 -35 -53 -30 c -41 10 -47 22 -24 53 c 11 15 24 39 28 52 c 4 14 16 36 26 49 c 11 13 19 31 19 41 c 0 10 8 28 18 41 c 11 13 22 38 26 54 c 4 17 13 37 21 45 c 7 8 16 24 19 36 c 6 20 37 42 62 43 c 6 1 23 -8 37 -19 Z m -2063 -34 c 0 -8 -10 -16 -22 -19 c -13 -4 -27 -16 -33 -28 c -5 -13 -16 -24 -22 -27 c -23 -7 -14 31 15 59 c 29 30 62 38 62 15 Z m 2566 -35 c 14 -16 37 -32 51 -36 c 33 -8 25 -27 -18 -41 l -34 -11 l 4 -79 c 1 -44 5 -82 8 -86 c 2 -5 20 -8 39 -8 c 26 0 34 -4 34 -18 c 0 -53 -91 -74 -136 -31 c -22 21 -24 30 -24 121 c 0 98 0 99 -27 109 c -35 13 -97 2 -118 -21 c -13 -14 -17 -40 -18 -109 c -2 -95 -16 -128 -49 -116 c -17 7 -25 51 -34 192 c -5 76 -4 82 16 93 c 12 6 63 12 113 12 c 88 1 93 3 119 30 c 34 35 42 35 74 -1 Z m -1447 -55 c 1 -4 -10 -16 -22 -27 c -25 -19 -25 -17 -18 -177 c 1 -12 10 -30 21 -39 c 11 -10 20 -21 20 -25 c 0 -16 -27 -7 -49 16 c -21 22 -22 32 -20 115 c 3 84 1 92 -21 117 l -25 26 l 28 24 l 28 24 l 29 -22 c 16 -13 29 -27 29 -32 Z m -769 5 c 0 -5 -9 -13 -21 -16 c -11 -4 -27 -22 -36 -41 c -13 -26 -19 -31 -30 -23 c -13 12 -18 71 -6 82 c 10 11 93 8 93 -2 Z m 180 -1 c 0 -6 -8 -13 -17 -17 c -35 -12 -43 -24 -32 -44 c 15 -28 126 -27 162 1 c 33 26 37 25 37 -10 c 0 -26 -4 -30 -36 -36 c -20 -4 -61 -4 -92 -1 c -43 5 -64 2 -96 -14 c -48 -23 -46 -23 -46 0 c 0 24 20 69 45 103 c 20 27 75 40 75 18 Z m 110 -5 c 0 -16 -17 -19 -44 -9 c -22 9 -10 24 20 24 c 15 0 24 -6 24 -15 Z m 154 6 c 7 -11 -22 -23 -35 -15 c -5 3 -7 10 -4 15 c 8 12 32 12 39 0 Z m 153 -21 c 8 -16 11 -59 10 -120 c -3 -80 -6 -95 -20 -98 c -14 -3 -17 6 -17 57 c 0 49 -4 63 -19 73 c -19 12 -19 12 0 36 c 25 32 24 40 -6 54 c -30 14 -22 30 13 26 c 16 -2 31 -13 39 -28 Z m 268 -100 c 0 -104 -2 -125 -15 -125 c -12 0 -15 22 -18 128 c -2 119 -1 128 15 125 c 16 -3 18 -16 18 -128 Z m 89 114 c 3 -9 6 -23 6 -33 c 0 -9 9 -24 20 -34 c 24 -20 28 -87 6 -87 c -17 0 -26 22 -26 60 c 0 19 -7 33 -20 40 c -13 7 -20 21 -20 40 c 0 32 23 42 34 14 Z m 216 -15 c 0 -22 -5 -32 -20 -36 c -15 -4 -20 -14 -20 -38 c 0 -43 -9 -65 -26 -65 c -22 0 -18 67 6 87 c 11 10 20 25 20 34 c 0 28 11 49 26 49 c 9 0 14 -11 14 -31 Z m 140 21 c 0 -6 -11 -15 -25 -20 c -27 -10 -32 -29 -13 -48 c 17 -17 117 -14 148 3 c 35 20 40 19 40 -9 c 0 -20 -6 -25 -39 -31 c -21 -3 -55 -3 -75 1 c -39 7 -126 -12 -126 -27 c 0 -5 -4 -9 -10 -9 c -26 0 -1 88 38 133 c 16 18 62 24 62 7 Z m 115 0 c 12 -19 -5 -30 -30 -18 c -13 6 -22 15 -19 19 c 7 12 41 11 49 -1 Z m -1865 -70 c 0 -59 3 -71 20 -80 c 11 -6 20 -17 20 -24 c 0 -8 11 -21 25 -30 c 29 -19 33 -36 7 -36 c -20 0 -82 53 -82 70 c 0 6 -7 18 -15 26 c -10 10 -15 35 -15 73 c 0 60 4 71 27 71 c 10 0 13 -18 13 -70 Z m 908 -62 c -3 -7 -21 -17 -42 -22 c -36 -9 -37 -12 -31 -42 c 6 -35 -4 -48 -29 -38 c -48 18 12 113 72 114 c 23 0 32 -4 30 -12 Z m -347 -55 c 11 -30 5 -57 -13 -51 c -13 5 -30 57 -22 70 c 10 16 25 8 35 -19 Z m 959 -18 c 0 -28 -4 -36 -24 -41 c -34 -8 -46 2 -46 36 c 0 28 11 36 53 39 c 13 1 17 -7 17 -34 Z m 176 9 c 13 -19 14 -28 5 -37 c -14 -14 -27 -1 -36 36 c -9 35 9 36 31 1 Z m -1472 -60 c 28 -11 6 -24 -39 -24 c -42 0 -62 10 -48 24 c 8 8 66 8 87 0 Z m 473 -10 c -3 -3 -12 -4 -19 -1 c -8 3 -5 6 6 6 c 11 1 17 -2 13 -5 Z m 236 -5 c -8 -8 -16 -8 -30 0 c -16 9 -14 10 12 11 c 21 0 26 -3 18 -11 Z m 879 -1 c -8 -8 -17 -8 -34 0 c -22 10 -21 11 12 11 c 26 1 31 -2 22 -11 Z" />
<path d="M 2695 2900 c -28 -31 -5 -48 76 -56 c 38 -3 74 -13 80 -20 c 6 -7 27 -16 48 -20 c 20 -4 47 -15 60 -25 c 31 -25 63 -24 86 1 c 10 11 28 20 40 20 c 29 0 37 10 24 27 c -6 7 -30 13 -54 13 c -28 0 -47 6 -59 19 c -12 13 -37 20 -95 25 c -44 3 -98 13 -121 21 c -55 19 -63 19 -85 -5 Z m 295 -80 c 0 -5 -7 -10 -15 -10 c -8 0 -15 5 -15 10 c 0 6 7 10 15 10 c 8 0 15 -4 15 -10 Z" />
<path d="M 3140 2790 c 0 -12 33 -30 54 -30 c 21 0 21 26 0 34 c -24 9 -54 7 -54 -4 Z" />
<path d="M 3531 2731 c -23 -19 -32 -33 -28 -45 c 8 -21 26 -21 34 2 c 3 9 15 25 27 34 c 14 11 18 20 11 27 c -7 6 -22 0 -44 -18 Z" />
<path d="M 3060 2741 c 0 -12 39 -25 48 -16 c 7 7 -17 25 -35 25 c -7 0 -13 -4 -13 -9 Z" />
<path d="M 3250 2740 c 0 -5 7 -10 16 -10 c 8 0 12 5 9 10 c -3 6 -10 10 -16 10 c -5 0 -9 -4 -9 -10 Z" />
<path d="M 3630 2599 c 0 -5 5 -7 10 -4 c 6 3 10 8 10 11 c 0 2 -4 4 -10 4 c -5 0 -10 -5 -10 -11 Z" />
<path d="M 3595 2569 c -4 -6 -5 -13 -2 -16 c 7 -7 27 6 27 18 c 0 12 -17 12 -25 -2 Z" />
<path d="M 3762 2501 c -32 -49 -41 -81 -22 -81 c 5 0 13 12 16 28 c 4 15 18 40 31 55 c 24 29 29 47 15 47 c -5 0 -23 -22 -40 -49 Z" />
<path d="M 3280 2510 c 0 -5 5 -10 10 -10 c 6 0 10 5 10 10 c 0 6 -4 10 -10 10 c -5 0 -10 -4 -10 -10 Z" />
<path d="M 3332 2429 c 1 -12 9 -24 16 -27 c 9 -3 13 3 10 19 c -1 12 -9 24 -16 27 c -9 3 -13 -3 -10 -19 Z" />
<path d="M 2816 2171 c -4 -7 -19 -16 -33 -22 c -16 -6 -23 -15 -21 -27 c 5 -27 41 -20 56 11 c 14 29 12 62 -2 38 Z" />
<path d="M 4256 2173 c -14 -14 -4 -44 19 -59 c 24 -15 55 -14 55 3 c 0 12 -67 63 -74 56 Z" />
<path d="M 4430 1476 c -14 -18 -6 -50 13 -44 c 15 6 22 37 10 49 c -6 6 -15 4 -23 -5 Z" />
<path d="M 3333 1443 c -13 -2 -23 -8 -23 -13 c 0 -13 39 -18 125 -16 c 85 3 125 11 125 27 c 0 9 -182 11 -227 2 Z" />
<path d="M 3580 1441 c 0 -12 37 -18 88 -13 c 66 6 50 22 -23 22 c -36 0 -65 -4 -65 -9 Z" />
<path d="M 3770 1435 c 0 -9 62 -36 68 -30 c 9 9 -28 35 -50 35 c -10 0 -18 -2 -18 -5 Z" />
<path d="M 4271 1365 c -17 -20 -31 -40 -31 -45 c 0 -19 16 -10 38 20 c 19 26 29 30 68 30 c 58 0 56 24 -3 28 c -35 3 -44 -1 -72 -33 Z" />
<path d="M 3850 1286 c 0 -41 4 -77 9 -81 c 15 -9 17 5 13 83 c -5 95 -22 93 -22 -2 Z" />
<path d="M 4600 1336 c 0 -2 7 -9 15 -16 c 13 -11 14 -10 9 4 c -5 14 -24 23 -24 12 Z" />
<path d="M 4650 1245 c 0 -14 5 -25 10 -25 c 6 0 10 11 10 25 c 0 14 -4 25 -10 25 c -5 0 -10 -11 -10 -25 Z" />
<path d="M 4746 1240 c -30 -36 -31 -43 -12 -59 c 11 -9 18 -6 33 15 c 16 21 30 28 72 32 c 41 4 51 8 49 21 c -2 12 -17 17 -59 19 c -53 3 -58 1 -83 -28 Z" />
<path d="M 4328 1213 c -58 -9 -24 -33 47 -33 c 53 0 75 8 75 26 c 0 14 -55 17 -122 7 Z" />
<path d="M 4594 1171 c -4 -17 -13 -31 -20 -31 c -12 0 -34 -29 -34 -44 c 0 -15 42 -4 47 12 c 2 10 14 22 26 27 c 27 12 31 58 4 63 c -12 3 -19 -5 -23 -27 Z" />
<path d="M 4276 765 c -33 -42 -28 -65 12 -65 c 40 0 55 20 45 61 c -12 45 -25 46 -57 4 Z" />
</g>
</svg>